<svg xmlns="http://www.w3.org/2000/svg" width="640" height="360" viewBox="0 0 640 360" fill="none">
  <defs><linearGradient id="bg" x2="640" y2="360" gradientUnits="userSpaceOnUse"><stop stop-color="#8b5cf6"/><stop offset="1" stop-color="#312e81"/></linearGradient></defs>
  <path fill="url(#bg)" d="M0 0h640v360H0z"/>
  <g stroke="#c4b5fd" stroke-opacity=".16"><circle cx="512" cy="178" r="133"/><circle cx="512" cy="178" r="104"/><path d="M380 178h264M512 46v264"/></g>
  <g stroke="#ddd6fe" stroke-width="3">
    <rect x="454" y="120" width="116" height="116" rx="24" fill="#312e81" fill-opacity=".7"/>
    <path d="M477 105V86m23 19V86m24 19V86m23 19V86m-70 169v19m23-19v19m24-19v19m23-19v19m-113-120h-19m19 24h-19m19 24h-19m175-48h19m-19 24h19m-19 24h19" stroke-opacity=".7"/>
    <path d="M488 176v-12a10 10 0 0 1 20 0v29a10 10 0 0 1-20 0m48-17v-12a10 10 0 0 0-20 0v29a10 10 0 0 0 20 0" stroke-linecap="round"/>
  </g>
  <g fill="white" font-family="Arial, sans-serif">
    <text x="40" y="49" font-size="19" font-weight="700" letter-spacing="3">CODI / DATA &amp; AI</text>
    <text x="40" y="141" font-size="51" font-weight="800">AI Engineering</text>
    <text x="40" y="202" font-size="51" font-weight="800">&amp; AI Agent</text>
    <text x="42" y="247" font-size="22" opacity=".88">Biến ý tưởng thành trợ lý AI</text>
    <text x="42" y="321" font-size="17" font-weight="700" letter-spacing="2" opacity=".8">LLM · RAG · AUTOMATION</text>
  </g>
</svg>
